.
 
http://www.scenetime.com    -  Hottest private tracker on the net. !!!

Sign up will close shortly !!  Join now 

        Seed back for speed


...................................NFO:.................................................                                                                                                     
       
     
     
       
       
     
     
                                         
                                         
                EXVID                    
                                         
         
                                         
         Filled the Archives             
                                         
         
                                         
                With:                    
                                         
         
                                         
                                    
     E240                           
                                    
     SP               (C) 2009      
                                         
     
     
     
                                                                                  
                                                                                   
       Terminator.Salvation.2009.Theatrical.Cut.DVDRip.XviD-EXViD                   
                                                                                   
                                                                                  
     
                                                                                               
EXViD aims to iNTERNAL those releases which have been lost in the archives.
EXViD aims to PRE non-internal releases which have poor sources and are likely skipped by others.
 
http://www.imdb.com/title/tt0438488/
Subtitles: EN, FR, NL, AR, DA, FI, NO, SV
Date: 2011.08

Director: McG

Genres: Action | Drama | Sci-Fi | Thriller

Plot:
In 2018, Skynet has destroyed most of humanity and survivors have been hiding underground
from an army of machines, known as "Terminators". After a failed attack on a Skynet base,
John Connor, the man fated to lead the Resistance is the sole survivor. On the other hand,
Marcus Wright, who only remembers being on death row, meets Kyle Reese and it is believed
by Connor that he was sent from the future to kill him. Now Marcus and John must unlikely
join forces in order to save Kyle Reese and the humans captured by the machines.

Cast:
Christian Bale 	 ... 	 John Connor
Sam Worthington 	 ... 	 Marcus Wright
Moon Bloodgood 	 ... 	 Blair Williams
Helena Bonham Carter 	 ... 	 Dr. Serena Kogan
Anton Yelchin 	 ... 	 Kyle Reese
Jadagrace 	 ... 	 Star (as Jadagrace Berry)
Bryce Dallas Howard 	 ... 	 Kate Connor
Common 	 ... 	 Barnes
Jane Alexander 	 ... 	 Virginia
Michael Ironside 	 ... 	 General Ashdown
Ivan G'Vera 	 ... 	 General Losenko (as Ivan Gvera)
Chris Browning 	 ... 	 Morrison
Dorian Nkono 	 ... 	 David
Beth Bailey 	 ... 	 Lisa
Victor J. Ho 	 ... 	 Mark (as Victor Ho)

Stats:
Format                           : AVI
Format/Info                      : Audio Video Interleave
File size                        : 1.37 GiB
Duration                         : 1h 50mn
Overall bit rate                 : 1 779 Kbps
Writing application              : Nandub v1.0rc2
Writing library                  : Nandub build 1852/release

Video
ID                               : 0
Format                           : MPEG-4 Visual
Format profile                   : Advanced Simple@L5
Format settings, BVOP            : 2
Format settings, QPel            : No
Format settings, GMC             : No warppoints
Format settings, Matrix          : Default (H.263)
Codec ID                         : XVID
Codec ID/Hint                    : XviD
Duration                         : 1h 50mn
Bit rate                         : 1 324 Kbps
Width                            : 640 pixels
Height                           : 272 pixels
Display aspect ratio             : 2.35:1
Frame rate                       : 25.000 fps
Color space                      : YUV
Chroma subsampling               : 4:2:0
Bit depth                        : 8 bits
Scan type                        : Progressive
Compression mode                 : Lossy
Bits/(Pixel*Frame)               : 0.304
Stream size                      : 1.02 GiB (74%)
Writing library                  : XviD 64

Audio
ID                               : 1
Format                           : AC-3
Format/Info                      : Audio Coding 3
Mode extension                   : CM (complete main)
Codec ID                         : 2000
Duration                         : 1h 50mn
Bit rate mode                    : Constant
Bit rate                         : 448 Kbps
Channel(s)                       : 6 channels
Channel positions                : Front: L C R, Side: L R, LFE
Sampling rate                    : 48.0 KHz
Bit depth                        : 16 bits
Compression mode                 : Lossy
Stream size                      : 353 MiB (25%)
Alignment                        : Aligned on interleaves
Interleave, duration             : 96 ms (2.40 video frames)
Interleave, preload duration     : 96 ms




Release notes:
iMBT did the Director's Cut, this is the THEATRiCAL cut.

See http://www.movie-censorship.com/report.php?ID=4991440 for differences.

enjoy!

Looking for:
75TB+ Archives
DUTCH/FLEMiSH Archives
                                                                                                    
Greets: CRBS EPiSODE FiCO FLS iLS KLASSiGER LiPSYNC MADE NODLABS RUNNER SPRiNTER      
   

                                                                    ASCII DONE BY XX^NFO 2oo9